# xmcd CD database file
#
# Track frame offsets:
#	150
#	17235
#	37302
#	59675
#	81782
#	97782
#	119882
#	143825
#	164392
#	181520
#
# Disc length: 2767 seconds
#
# Revision: 0
# Processed by: cddbd v1.5.1PL0 Copyright (c) Steve Scherf et al.
# Submitted via: CDex 1.51
#
DISCID=870acd0a
DTITLE=水越恵子 - Jiggle
DYEAR=1900
DGENRE=JPop
TTITLE0=YOU
TTITLE1=最後は愛して
TTITLE2=むらさきのシーン
TTITLE3=Single Girl
TTITLE4=語らい
TTITLE5=Love Song for You
TTITLE6=窓景色
TTITLE7=月あかり
TTITLE8=夕凪の波のように
TTITLE9=Slow and Slow
EXTD=
EXTT0=
EXTT1=
EXTT2=
EXTT3=
EXTT4=
EXTT5=
EXTT6=
EXTT7=
EXTT8=
EXTT9=
PLAYORDER=
